<svg width="250" height="106" fill="none" xmlns="http://www.w3.org/2000/svg"><path d="M93.93 94.299H76.867L87.118 59.4H78.45L64.207 106H47.144l28.21-94.368h17.062L82.784 44.74h8.67L105.144 0h17.063L93.93 94.299zm29.654-82.666h32.544L151.243 26.5H136.45l-5.366 18.171h14.861l-4.678 14.662h-14.518l-5.711 19.203h15.825l-5.711 15.694H99.228l24.356-82.597zM151.312 106h-17.201l27.452-94.368H192.8c3.715 0 6.192 1.033 7.499 3.167 1.308 2.134 1.514 4.543.689 7.296l-8.257 28.083c-.413 1.239-1.17 2.34-2.339 3.373-1.17 1.032-2.821 1.514-4.954 1.514 1.307.206 2.408 1.032 3.303 2.478.894 1.445.894 3.648 0 6.608l-8.876 30.148h-17.132l9.495-32.42c.206-.688.275-1.308.069-1.927-.207-.62-.826-.895-1.858-.895h-5.711L151.312 106zm22.842-59.126c.826 0 1.583-.207 2.34-.62.688-.412 1.238-1.238 1.651-2.546l4.541-15.35c.688-2.271-.207-3.441-2.615-3.441h-5.366l-6.468 21.957h5.917zm68.803-35.241c2.684 0 4.61.963 5.849 2.89 1.238 1.928 1.513 4.13.825 6.54l-18.989 64.494c-1.032 3.442-2.821 5.713-5.298 6.952-2.477 1.24-5.16 1.79-7.981 1.79h-20.366a10.84 10.84 0 01-3.991-.757c-1.238-.482-2.201-1.24-3.027-2.203-.826-.964-1.307-2.203-1.582-3.58-.276-1.376-.138-2.959.412-4.749l18.646-63.324c.619-2.41 1.858-4.405 3.715-5.85 1.858-1.446 4.197-2.204 7.018-2.204h24.769zm-17.888 13.284c-.826 0-1.445.206-1.789.55-.413.414-.619.895-.826 1.446l-15.205 51.486c-.413 1.376.137 2.065 1.582 2.065h4.404c1.444 0 2.339-.689 2.752-2.065l15.136-51.417c.344-1.446-.206-2.134-1.72-2.134h-4.334v.069z" fill="#E02041"/><path d="M31.443 20.65H42.52c1.445 0 2.34.412 2.752 1.17.413.757.482 1.651.207 2.753l-2.615 8.948c-.137.55-.481 1.032-1.032 1.445-.55.482-1.376.62-2.408.62.55 0 .963.137 1.239.344.344.206.55.482.688.826.137.344.206.688.206 1.101 0 .413-.069.826-.138 1.17l-2.476 8.191a4.442 4.442 0 01-1.514 2.272c-.688.55-1.789.826-3.096.826H22.705l8.738-29.667zm1.1 24.779c.276 0 .551-.07.758-.138.206-.138.413-.413.55-.826l1.789-5.988c.138-.413.138-.689 0-.964s-.413-.344-.826-.344h-1.926l-2.477 8.328h2.133v-.068zm3.372-12.252c.413 0 .757-.07.964-.207.206-.137.412-.413.55-.895l1.582-5.369c.138-.412.138-.688.07-.894-.138-.207-.414-.345-.827-.345H36.26l-2.27 7.71h1.926zM48.781 20.65h11.697l-1.583 5.368h-5.504l-1.926 6.54h5.366l-1.582 5.3h-5.367l-2.064 6.882h5.71l-2.063 5.644H40.043l8.738-29.735zM18.99 55.547l-1.583 5.369H13.21L6.123 85.213H0l7.224-24.366H2.96l1.582-5.37H18.99v.07zm8.325 29.666h-6.123l3.646-12.527h-3.096l-3.716 12.527h-6.123l8.738-29.666h6.124l-3.44 11.908h3.096l3.509-11.908h6.123l-8.738 29.666zM37.98 55.547h11.696l-1.583 5.369H42.59l-1.926 6.539h5.366l-1.582 5.3H39.08l-2.064 6.883h5.71l-2.063 5.644H29.24l8.738-29.735z" fill="#41414D"/></svg>